{
    "asset" : {
        "generator" : "Khronos glTF Blender I/O v1.4.40",
        "version" : "2.0"
    },
    "scene" : 0,
    "scenes" : [
        {
            "name" : "Scene",
            "nodes" : [
                0
            ]
        }
    ],
    "nodes" : [
        {
            "mesh" : 0,
            "name" : "node_MeshObject-1328424064-PolyPaper23"
        }
    ],
    "materials" : [
        {
            "name" : "BlocksPaper",
            "pbrMetallicRoughness" : {
                "metallicFactor" : 0,
                "roughnessFactor" : 0.6000000238418579
            }
        }
    ],
    "meshes" : [
        {
            "name" : "mesh_m0-PolyPaper23_-329076",
            "primitives" : [
                {
                    "attributes" : {
                        "POSITION" : 0,
                        "NORMAL" : 1,
                        "COLOR_0" : 2
                    },
                    "indices" : 3,
                    "material" : 0
                }
            ]
        }
    ],
    "accessors" : [
        {
            "bufferView" : 0,
            "componentType" : 5126,
            "count" : 1054,
            "max" : [
                0.07145211100578308,
                0.2767030894756317,
                0.06252256035804749
            ],
            "min" : [
                -0.059362806379795074,
                1.3679265975952148e-05,
                -0.06304797530174255
            ],
            "type" : "VEC3"
        },
        {
            "bufferView" : 1,
            "componentType" : 5126,
            "count" : 1054,
            "type" : "VEC3"
        },
        {
            "bufferView" : 2,
            "componentType" : 5123,
            "count" : 1054,
            "normalized" : true,
            "type" : "VEC4"
        },
        {
            "bufferView" : 3,
            "componentType" : 5123,
            "count" : 1116,
            "type" : "SCALAR"
        }
    ],
    "bufferViews" : [
        {
            "buffer" : 0,
            "byteLength" : 12648,
            "byteOffset" : 0
        },
        {
            "buffer" : 0,
            "byteLength" : 12648,
            "byteOffset" : 12648
        },
        {
            "buffer" : 0,
            "byteLength" : 8432,
            "byteOffset" : 25296
        },
        {
            "buffer" : 0,
            "byteLength" : 2232,
            "byteOffset" : 33728
        }
    ],
    "buffers" : [
        {
            "byteLength" : 35960,
            "uri" : "data:application/octet-stream;base64,"
        }
    ]
}
