{
    "asset" : {
        "generator" : "Khronos glTF Blender I/O v1.4.40",
        "version" : "2.0"
    },
    "scene" : 0,
    "scenes" : [
        {
            "name" : "Scene",
            "nodes" : [
                0
            ]
        }
    ],
    "nodes" : [
        {
            "mesh" : 0,
            "name" : "node_MeshObject1316465664-PolyPaper21"
        }
    ],
    "materials" : [
        {
            "name" : "BlocksPaper",
            "pbrMetallicRoughness" : {
                "metallicFactor" : 0,
                "roughnessFactor" : 0.6000000238418579
            }
        }
    ],
    "meshes" : [
        {
            "name" : "mesh_m0-PolyPaper21_-843838",
            "primitives" : [
                {
                    "attributes" : {
                        "POSITION" : 0,
                        "NORMAL" : 1,
                        "COLOR_0" : 2
                    },
                    "indices" : 3,
                    "material" : 0
                }
            ]
        }
    ],
    "accessors" : [
        {
            "bufferView" : 0,
            "componentType" : 5126,
            "count" : 1934,
            "max" : [
                0.3400566577911377,
                0.050028324127197266,
                0.3400217890739441
            ],
            "min" : [
                -0.33998849987983704,
                -0.05006444454193115,
                -0.3400249183177948
            ],
            "type" : "VEC3"
        },
        {
            "bufferView" : 1,
            "componentType" : 5126,
            "count" : 1934,
            "type" : "VEC3"
        },
        {
            "bufferView" : 2,
            "componentType" : 5123,
            "count" : 1934,
            "normalized" : true,
            "type" : "VEC4"
        },
        {
            "bufferView" : 3,
            "componentType" : 5123,
            "count" : 2484,
            "type" : "SCALAR"
        }
    ],
    "bufferViews" : [
        {
            "buffer" : 0,
            "byteLength" : 23208,
            "byteOffset" : 0
        },
        {
            "buffer" : 0,
            "byteLength" : 23208,
            "byteOffset" : 23208
        },
        {
            "buffer" : 0,
            "byteLength" : 15472,
            "byteOffset" : 46416
        },
        {
            "buffer" : 0,
            "byteLength" : 4968,
            "byteOffset" : 61888
        }
    ],
    "buffers" : [
        {
            "byteLength" : 66856,
            "uri" : "data:application/octet-stream;base64,"
        }
    ]
}
